<svg width="23" height="22" viewBox="0 0 23 22" fill="none" xmlns="http://www.w3.org/2000/svg">
    <path fill-rule="evenodd" clip-rule="evenodd"
          d="M10.5145 0.201956C10.5783 0.137939 10.6542 0.0871483 10.7377 0.0524934C10.8213 0.0178384 10.9108 0 11.0012 0C11.0917 0 11.1812 0.0178384 11.2647 0.0524934C11.3482 0.0871483 11.4241 0.137939 11.488 0.201956L14.238 2.95165C14.3019 3.01556 14.3526 3.09144 14.3872 3.17495C14.4218 3.25845 14.4396 3.34796 14.4396 3.43834C14.4396 3.52873 14.4218 3.61823 14.3872 3.70174C14.3526 3.78525 14.3019 3.86113 14.238 3.92504C14.1741 3.98895 14.0982 4.03965 14.0147 4.07424C13.9311 4.10883 13.8416 4.12664 13.7512 4.12664C13.6608 4.12664 13.5713 4.10883 13.4878 4.07424C13.4043 4.03965 13.3284 3.98895 13.2645 3.92504L11.6887 2.34809V7.56288C11.6887 7.7452 11.6163 7.92005 11.4874 8.04896C11.3584 8.17788 11.1836 8.25031 11.0012 8.25031C10.8189 8.25031 10.644 8.17788 10.5151 8.04896C10.3862 7.92005 10.3137 7.7452 10.3137 7.56288V2.34809L8.73798 3.92504C8.60888 4.05412 8.43379 4.12664 8.25123 4.12664C8.06866 4.12664 7.89357 4.05412 7.76448 3.92504C7.63538 3.79596 7.56286 3.62089 7.56286 3.43834C7.56286 3.2558 7.63538 3.08073 7.76448 2.95165L10.5145 0.201956ZM11.0012 13.7497C11.1836 13.7497 11.3584 13.8221 11.4874 13.951C11.6163 14.0799 11.6887 14.2548 11.6887 14.4371V19.6519L13.2645 18.075C13.3936 17.9459 13.5687 17.8734 13.7512 17.8734C13.9338 17.8734 14.1089 17.9459 14.238 18.075C14.3671 18.204 14.4396 18.3791 14.4396 18.5617C14.4396 18.7442 14.3671 18.9193 14.238 19.0483L11.488 21.798C11.4241 21.8621 11.3482 21.9128 11.2647 21.9475C11.1812 21.9822 11.0917 22 11.0012 22C10.9108 22 10.8213 21.9822 10.7377 21.9475C10.6542 21.9128 10.5783 21.8621 10.5145 21.798L7.76448 19.0483C7.70056 18.9844 7.64985 18.9086 7.61526 18.8251C7.58067 18.7415 7.56286 18.652 7.56286 18.5617C7.56286 18.4713 7.58067 18.3818 7.61526 18.2983C7.64985 18.2147 7.70056 18.1389 7.76448 18.075C7.89357 17.9459 8.06866 17.8734 8.25123 17.8734C8.34163 17.8734 8.43114 17.8912 8.51466 17.9258C8.59817 17.9603 8.67406 18.011 8.73798 18.075L10.3137 19.6519V14.4371C10.3137 14.2548 10.3862 14.0799 10.5151 13.951C10.644 13.8221 10.8189 13.7497 11.0012 13.7497ZM0.201979 11.4867C0.137955 11.4228 0.0871581 11.347 0.0524992 11.2635C0.0178404 11.1799 0 11.0904 0 11C0 10.9096 0.0178404 10.82 0.0524992 10.7365C0.0871581 10.653 0.137955 10.5772 0.201979 10.5133L2.95198 7.76361C3.08107 7.63453 3.25616 7.56201 3.43873 7.56201C3.6213 7.56201 3.79639 7.63453 3.92548 7.76361C4.05457 7.89269 4.1271 8.06776 4.1271 8.25031C4.1271 8.43285 4.05457 8.60792 3.92548 8.737L2.34835 10.3126H7.56373C7.74607 10.3126 7.92093 10.385 8.04986 10.5139C8.1788 10.6428 8.25123 10.8177 8.25123 11C8.25123 11.1823 8.1788 11.3572 8.04986 11.4861C7.92093 11.615 7.74607 11.6874 7.56373 11.6874H2.34835L3.92548 13.263C4.05457 13.3921 4.1271 13.5671 4.1271 13.7497C4.1271 13.9322 4.05457 14.1073 3.92548 14.2364C3.79639 14.3655 3.6213 14.438 3.43873 14.438C3.25616 14.438 3.08107 14.3655 2.95198 14.2364L0.201979 11.4867ZM13.7512 11C13.7512 10.8177 13.8237 10.6428 13.9526 10.5139C14.0815 10.385 14.2564 10.3126 14.4387 10.3126H19.6541L18.077 8.737C18.0131 8.67309 17.9624 8.59721 17.9278 8.5137C17.8932 8.4302 17.8754 8.34069 17.8754 8.25031C17.8754 8.15992 17.8932 8.07042 17.9278 7.98691C17.9624 7.9034 18.0131 7.82752 18.077 7.76361C18.2061 7.63453 18.3812 7.56201 18.5637 7.56201C18.6541 7.56201 18.7436 7.57982 18.8272 7.61441C18.9107 7.649 18.9866 7.6997 19.0505 7.76361L21.8005 10.5133C21.8645 10.5772 21.9153 10.653 21.95 10.7365C21.9846 10.82 22.0025 10.9096 22.0025 11C22.0025 11.0904 21.9846 11.1799 21.95 11.2635C21.9153 11.347 21.8645 11.4228 21.8005 11.4867L19.0505 14.2364C18.9866 14.3003 18.9107 14.351 18.8272 14.3856C18.7436 14.4202 18.6541 14.438 18.5637 14.438C18.4733 14.438 18.3838 14.4202 18.3003 14.3856C18.2168 14.351 18.1409 14.3003 18.077 14.2364C18.0131 14.1725 17.9624 14.0966 17.9278 14.0131C17.8932 13.9296 17.8754 13.8401 17.8754 13.7497C17.8754 13.6593 17.8932 13.5698 17.9278 13.4863C17.9624 13.4028 18.0131 13.3269 18.077 13.263L19.6541 11.6874H14.4387C14.2564 11.6874 14.0815 11.615 13.9526 11.4861C13.8237 11.3572 13.7512 11.1823 13.7512 11Z"
          fill="white"/>
</svg>
