<svg width="14" height="14" viewBox="0 0 14 14" fill="none" xmlns="http://www.w3.org/2000/svg">
<g clip-path="url(#clip0_4:25)">
<path fill-rule="evenodd" clip-rule="evenodd" d="M6.69012 0.127617C6.73076 0.0868737 6.77903 0.0545487 6.83219 0.0324931C6.88534 0.0104374 6.94232 -0.000915527 6.99987 -0.000915527C7.05741 -0.000915527 7.11439 0.0104374 7.16755 0.0324931C7.2207 0.0545487 7.26898 0.0868737 7.30962 0.127617L9.05962 1.87762C9.10029 1.91829 9.13256 1.96658 9.15457 2.01973C9.17659 2.07288 9.18792 2.12984 9.18792 2.18737C9.18792 2.24489 9.17659 2.30186 9.15457 2.355C9.13256 2.40815 9.10029 2.45644 9.05962 2.49712C9.01894 2.53779 8.97065 2.57006 8.9175 2.59207C8.86436 2.61409 8.80739 2.62542 8.74987 2.62542C8.69234 2.62542 8.63538 2.61409 8.58223 2.59207C8.52908 2.57006 8.48079 2.53779 8.44012 2.49712L7.43737 1.49349V4.81237C7.43737 4.9284 7.39127 5.03968 7.30923 5.12173C7.22718 5.20377 7.1159 5.24987 6.99987 5.24987C6.88383 5.24987 6.77255 5.20377 6.69051 5.12173C6.60846 5.03968 6.56237 4.9284 6.56237 4.81237V1.49349L5.55962 2.49712C5.47747 2.57927 5.36605 2.62542 5.24987 2.62542C5.13369 2.62542 5.02227 2.57927 4.94012 2.49712C4.85797 2.41497 4.81181 2.30355 4.81181 2.18737C4.81181 2.07119 4.85797 1.95977 4.94012 1.87762L6.69012 0.127617V0.127617ZM6.99987 8.74987C7.1159 8.74987 7.22718 8.79596 7.30923 8.87801C7.39127 8.96005 7.43737 9.07133 7.43737 9.18737V12.5062L8.44012 11.5026C8.52227 11.4205 8.63369 11.3743 8.74987 11.3743C8.86605 11.3743 8.97747 11.4205 9.05962 11.5026C9.14177 11.5848 9.18792 11.6962 9.18792 11.8124C9.18792 11.9285 9.14177 12.04 9.05962 12.1221L7.30962 13.8721C7.26898 13.9129 7.2207 13.9452 7.16755 13.9672C7.11439 13.9893 7.05741 14.0006 6.99987 14.0006C6.94232 14.0006 6.88534 13.9893 6.83219 13.9672C6.77903 13.9452 6.73076 13.9129 6.69012 13.8721L4.94012 12.1221C4.89944 12.0814 4.86717 12.0331 4.84516 11.98C4.82314 11.9269 4.81181 11.8699 4.81181 11.8124C4.81181 11.7548 4.82314 11.6979 4.84516 11.6447C4.86717 11.5916 4.89944 11.5433 4.94012 11.5026C5.02227 11.4205 5.13369 11.3743 5.24987 11.3743C5.30739 11.3743 5.36436 11.3856 5.4175 11.4077C5.47065 11.4297 5.51894 11.4619 5.55962 11.5026L6.56237 12.5062V9.18737C6.56237 9.07133 6.60846 8.96005 6.69051 8.87801C6.77255 8.79596 6.88383 8.74987 6.99987 8.74987V8.74987ZM0.127617 7.30962C0.0868737 7.26898 0.0545487 7.2207 0.0324931 7.16755C0.0104374 7.11439 -0.000915527 7.05741 -0.000915527 6.99987C-0.000915527 6.94232 0.0104374 6.88534 0.0324931 6.83219C0.0545487 6.77903 0.0868737 6.73076 0.127617 6.69012L1.87762 4.94012C1.95977 4.85797 2.07119 4.81181 2.18737 4.81181C2.30355 4.81181 2.41497 4.85797 2.49712 4.94012C2.57927 5.02227 2.62542 5.13369 2.62542 5.24987C2.62542 5.36605 2.57927 5.47747 2.49712 5.55962L1.49349 6.56237H4.81237C4.9284 6.56237 5.03968 6.60846 5.12173 6.69051C5.20377 6.77255 5.24987 6.88383 5.24987 6.99987C5.24987 7.1159 5.20377 7.22718 5.12173 7.30923C5.03968 7.39127 4.9284 7.43737 4.81237 7.43737H1.49349L2.49712 8.44012C2.57927 8.52227 2.62542 8.63369 2.62542 8.74987C2.62542 8.86605 2.57927 8.97747 2.49712 9.05962C2.41497 9.14177 2.30355 9.18792 2.18737 9.18792C2.07119 9.18792 1.95977 9.14177 1.87762 9.05962L0.127617 7.30962V7.30962ZM8.74987 6.99987C8.74987 6.88383 8.79596 6.77255 8.87801 6.69051C8.96005 6.60846 9.07133 6.56237 9.18737 6.56237H12.5062L11.5026 5.55962C11.4619 5.51894 11.4297 5.47065 11.4077 5.4175C11.3856 5.36436 11.3743 5.30739 11.3743 5.24987C11.3743 5.19234 11.3856 5.13538 11.4077 5.08223C11.4297 5.02908 11.4619 4.98079 11.5026 4.94012C11.5848 4.85797 11.6962 4.81181 11.8124 4.81181C11.8699 4.81181 11.9269 4.82314 11.98 4.84516C12.0331 4.86717 12.0814 4.89944 12.1221 4.94012L13.8721 6.69012C13.9129 6.73076 13.9452 6.77903 13.9672 6.83219C13.9893 6.88534 14.0006 6.94232 14.0006 6.99987C14.0006 7.05741 13.9893 7.11439 13.9672 7.16755C13.9452 7.2207 13.9129 7.26898 13.8721 7.30962L12.1221 9.05962C12.0814 9.10029 12.0331 9.13256 11.98 9.15457C11.9269 9.17659 11.8699 9.18792 11.8124 9.18792C11.7548 9.18792 11.6979 9.17659 11.6447 9.15457C11.5916 9.13256 11.5433 9.10029 11.5026 9.05962C11.4619 9.01894 11.4297 8.97065 11.4077 8.9175C11.3856 8.86436 11.3743 8.80739 11.3743 8.74987C11.3743 8.69234 11.3856 8.63538 11.4077 8.58223C11.4297 8.52908 11.4619 8.48079 11.5026 8.44012L12.5062 7.43737H9.18737C9.07133 7.43737 8.96005 7.39127 8.87801 7.30923C8.79596 7.22718 8.74987 7.1159 8.74987 6.99987Z" fill="#4C42BF"/>
</g>
<defs>
<clipPath id="clip0_4:25">
<rect width="22" height="22" fill="white"/>
</clipPath>
</defs>
</svg>
